HIERARCHY
ROOT Hips
{
  OFFSET 0 0.240689 0
  CHANNELS 6 Xposition Yposition Zposition Zrotation Xrotation Yrotation
  JOINT Bip01_Spine0
  {
    OFFSET 0 -24.7459 49.7988
    CHANNELS 6 Xposition Yposition Zposition Zrotation Xrotation Yrotation
    JOINT Bip01_Pelvis
    {
      OFFSET 0 0 0
      CHANNELS 6 Xposition Yposition Zposition Zrotation Xrotation Yrotation
      JOINT Bip01_Spine0_Tail
      {
        OFFSET -6.47486 -3.86022 0
        CHANNELS 6 Xposition Yposition Zposition Zrotation Xrotation Yrotation
        JOINT Bip01_Spine0_Tail1
        {
          OFFSET 10.3837 -0.00825882 0
          CHANNELS 6 Xposition Yposition Zposition Zrotation Xrotation Yrotation
          JOINT Bip01_Spine0_Tail2
          {
            OFFSET 10.3837 -0.00826263 0
            CHANNELS 6 Xposition Yposition Zposition Zrotation Xrotation Yrotation
            JOINT Bip01_Spine0_Tail3
            {
              OFFSET 10.3837 -0.00825882 0
              CHANNELS 6 Xposition Yposition Zposition Zrotation Xrotation Yrotation
              JOINT Bip01_Spine0_Tail4
              {
                OFFSET 10.3837 -0.00826263 0
                CHANNELS 6 Xposition Yposition Zposition Zrotation Xrotation Yrotation
                End Site
                {
                  OFFSET 0 0 0
                }
              }
            }
          }
        }
      }
      JOINT Bip01_R_Thigh
      {
        OFFSET 0 -1.52588e-005 -8.75617
        CHANNELS 6 Xposition Yposition Zposition Zrotation Xrotation Yrotation
        JOINT Bip01_R_Calf
        {
          OFFSET 19.7638 0 0
          CHANNELS 6 Xposition Yposition Zposition Zrotation Xrotation Yrotation
          JOINT Bip01_R_Foot
          {
            OFFSET 18.6534 0 0
            CHANNELS 6 Xposition Yposition Zposition Zrotation Xrotation Yrotation
            JOINT Bip01_R_Toe0
            {
              OFFSET 5.09145 13.9567 0
              CHANNELS 6 Xposition Yposition Zposition Zrotation Xrotation Yrotation
              JOINT Bip01_R_Toe01
              {
                OFFSET 4.28803 0 0
                CHANNELS 6 Xposition Yposition Zposition Zrotation Xrotation Yrotation
                JOINT Bip01_R_Toe02
                {
                  OFFSET 3.85801 0 0
                  CHANNELS 6 Xposition Yposition Zposition Zrotation Xrotation Yrotation
                  End Site
                  {
                    OFFSET 0 0 0
                  }
                }
              }
            }
          }
        }
      }
      JOINT Bip01_L_Thigh
      {
        OFFSET 0 1.52588e-005 8.75617
        CHANNELS 6 Xposition Yposition Zposition Zrotation Xrotation Yrotation
        JOINT Bip01_L_Calf
        {
          OFFSET 19.7638 0 0
          CHANNELS 6 Xposition Yposition Zposition Zrotation Xrotation Yrotation
          JOINT Bip01_L_Foot
          {
            OFFSET 18.6534 0 0
            CHANNELS 6 Xposition Yposition Zposition Zrotation Xrotation Yrotation
            JOINT Bip01_L_Toe0
            {
              OFFSET 5.09144 13.9567 0
              CHANNELS 6 Xposition Yposition Zposition Zrotation Xrotation Yrotation
              JOINT Bip01_L_Toe01
              {
                OFFSET 4.28802 0 0
                CHANNELS 6 Xposition Yposition Zposition Zrotation Xrotation Yrotation
                JOINT Bip01_L_Toe02
                {
                  OFFSET 3.85801 0 0
                  CHANNELS 6 Xposition Yposition Zposition Zrotation Xrotation Yrotation
                  End Site
                  {
                    OFFSET 0 0 0
                  }
                }
              }
            }
          }
        }
      }
      JOINT Bip01_Spine
      {
        OFFSET 9.14835 -0.00640869 -1.1e-005
        CHANNELS 6 Xposition Yposition Zposition Zrotation Xrotation Yrotation
        JOINT Bip01_Spine1
        {
          OFFSET 8.04366 -0.00638199 0
          CHANNELS 6 Xposition Yposition Zposition Zrotation Xrotation Yrotation
          JOINT Bip01_Spine2
          {
            OFFSET 8.04367 -0.00639343 0
            CHANNELS 6 Xposition Yposition Zposition Zrotation Xrotation Yrotation
            JOINT Bip01_Spine3
            {
              OFFSET 8.04304 -0.00831222 0
              CHANNELS 6 Xposition Yposition Zposition Zrotation Xrotation Yrotation
              JOINT Bip01_Neck
              {
                OFFSET 10.6685 1.06813 0
                CHANNELS 6 Xposition Yposition Zposition Zrotation Xrotation Yrotation
                JOINT Bip01_R_Clavicle
                {
                  OFFSET -3.21661 -4.89635 -9.04802
                  CHANNELS 6 Xposition Yposition Zposition Zrotation Xrotation Yrotation
                  JOINT Bip01_R_UpperArm
                  {
                    OFFSET 19.0492 0 0
                    CHANNELS 6 Xposition Yposition Zposition Zrotation Xrotation Yrotation
                    JOINT Bip01_R_Forearm
                    {
                      OFFSET 10.3706 0 0
                      CHANNELS 6 Xposition Yposition Zposition Zrotation Xrotation Yrotation
                      JOINT Bip01_R_Hand
                      {
                        OFFSET 22.8632 0 0
                        CHANNELS 6 Xposition Yposition Zposition Zrotation Xrotation Yrotation
                        JOINT Bip01_R_Finger0
                        {
                          OFFSET 6.48259 0.103651 0.504496
                          CHANNELS 6 Xposition Yposition Zposition Zrotation Xrotation Yrotation
                          JOINT Bip01_R_Finger01
                          {
                            OFFSET 3.66847 0 0
                            CHANNELS 6 Xposition Yposition Zposition Zrotation Xrotation Yrotation
                            End Site
                            {
                              OFFSET 0 0 0
                            }
                          }
                        }
                      }
                    }
                  }
                }
                JOINT Bip01_L_Clavicle
                {
                  OFFSET -3.21661 -4.89641 9.04797
                  CHANNELS 6 Xposition Yposition Zposition Zrotation Xrotation Yrotation
                  JOINT Bip01_L_UpperArm
                  {
                    OFFSET 19.0492 0 0
                    CHANNELS 6 Xposition Yposition Zposition Zrotation Xrotation Yrotation
                    JOINT Bip01_L_Forearm
                    {
                      OFFSET 10.3706 0 0
                      CHANNELS 6 Xposition Yposition Zposition Zrotation Xrotation Yrotation
                      JOINT Bip01_L_Hand
                      {
                        OFFSET 22.8631 0 0
                        CHANNELS 6 Xposition Yposition Zposition Zrotation Xrotation Yrotation
                        JOINT Bip01_L_Finger0
                        {
                          OFFSET 6.48257 0.103655 -0.504492
                          CHANNELS 6 Xposition Yposition Zposition Zrotation Xrotation Yrotation
                          JOINT Bip01_L_Finger01
                          {
                            OFFSET 3.66844 0 0
                            CHANNELS 6 Xposition Yposition Zposition Zrotation Xrotation Yrotation
                            End Site
                            {
                              OFFSET 0 0 0
                            }
                          }
                        }
                      }
                    }
                  }
                }
                JOINT Bip01_Neck1
                {
                  OFFSET 7.52459 -0.00656509 0
                  CHANNELS 6 Xposition Yposition Zposition Zrotation Xrotation Yrotation
                  JOINT Bip01_Neck2
                  {
                    OFFSET 8.4783 -0.00588226 0
                    CHANNELS 6 Xposition Yposition Zposition Zrotation Xrotation Yrotation
                    JOINT Bip01_Head
                    {
                      OFFSET 8.41606 0 0
                      CHANNELS 6 Xposition Yposition Zposition Zrotation Xrotation Yrotation
                      JOINT EyesBlue
                      {
                        OFFSET 0 0 0
                        CHANNELS 6 Xposition Yposition Zposition Zrotation Xrotation Yrotation
                        JOINT EyesBlue_2
                        {
                          OFFSET 0 -0.500007 0
                          CHANNELS 6 Xposition Yposition Zposition Zrotation Xrotation Yrotation
                          End Site
                          {
                            OFFSET 0 0 0
                          }
                        }
                      }
                      JOINT Bip01_Head2_Eyeleds
                      {
                        OFFSET 6.52751 7.61746 2.2e-005
                        CHANNELS 6 Xposition Yposition Zposition Zrotation Xrotation Yrotation
                        End Site
                        {
                          OFFSET 0 0 0
                        }
                      }
                      JOINT Bip01_Head_Muzzle
                      {
                        OFFSET 2.88628 13.9448 3.88994
                        CHANNELS 6 Xposition Yposition Zposition Zrotation Xrotation Yrotation
                        End Site
                        {
                          OFFSET 0 0 0
                        }
                      }
                      JOINT Bip01_Head1_Jaw
                      {
                        OFFSET 0.271065 1.32405 0
                        CHANNELS 6 Xposition Yposition Zposition Zrotation Xrotation Yrotation
                        JOINT _Bip01_Head11_TungeControler
                        {
                          OFFSET 4.61616 5.82872 0
                          CHANNELS 6 Xposition Yposition Zposition Zrotation Xrotation Yrotation
                          JOINT _Bip01_Ponytail3_tunge
                          {
                            OFFSET 5.17785 2.98805 0
                            CHANNELS 6 Xposition Yposition Zposition Zrotation Xrotation Yrotation
                            JOINT Bip01_Ponytail31
                            {
                              OFFSET 5.57569 0 0
                              CHANNELS 6 Xposition Yposition Zposition Zrotation Xrotation Yrotation
                              JOINT Bip01_Ponytail32
                              {
                                OFFSET 2.93165 0 0
                                CHANNELS 6 Xposition Yposition Zposition Zrotation Xrotation Yrotation
                                JOINT Bip01_Ponytail3Nub
                                {
                                  OFFSET 3.30155 0 0
                                  CHANNELS 6 Xposition Yposition Zposition Zrotation Xrotation Yrotation
                                  End Site
                                  {
                                    OFFSET 0 0 0
                                  }
                                }
                              }
                            }
                          }
                        }
                        JOINT Bip01_Head_JawNub
                        {
                          OFFSET 15.5776 -0.000389099 0
                          CHANNELS 6 Xposition Yposition Zposition Zrotation Xrotation Yrotation
                          End Site
                          {
                            OFFSET 0 0 0
                          }
                        }
                      }
                      JOINT Bip01_Ponytail2
                      {
                        OFFSET 9.40334 1.03973 -6.51764
                        CHANNELS 6 Xposition Yposition Zposition Zrotation Xrotation Yrotation
                        JOINT Bip01_Ponytail21
                        {
                          OFFSET 2.77018 -0.00640106 1.33514e-005
                          CHANNELS 6 Xposition Yposition Zposition Zrotation Xrotation Yrotation
                          End Site
                          {
                            OFFSET 0 0 0
                          }
                        }
                      }
                      JOINT Bip01_Ponytail1
                      {
                        OFFSET 9.40368 1.03969 6.51768
                        CHANNELS 6 Xposition Yposition Zposition Zrotation Xrotation Yrotation
                        JOINT Bip01_Ponytail11
                        {
                          OFFSET 2.77018 -0.00640487 0
                          CHANNELS 6 Xposition Yposition Zposition Zrotation Xrotation Yrotation
                          End Site
                          {
                            OFFSET 0 0 0
                          }
                        }
                      }
                    }
                  }
                }
              }
            }
          }
        }
      }
    }
  }
}
MOTION
Frames:	4
Frame Time:	0.0333333
0 0 -100 -0 -90 -0 0.000104 -28.7009 35.9119 90.0002 -0.000141295 80.4411 0 0 0 -89.9999 -4.9998e-005 -81.2254 -6.39736 -3.85823 -0.98799 172.968 2.11016 12.4706 10.3839 -0.008087 0.001105 4.89693 3.96292 -0.34165 10.3829 -0.008106 -0.00081 -2.19008 -3.70476 -6.80931 10.3839 -0.007934 0.001577 4.38301 6.22778 -8.41536 10.3862 -0.007553 0.000691999 21.3557 2.49465 -7.23678 1.1e-005 -1.1e-005 -8.75617 -102.184 0.625563 177.843 19.7638 0 1.77636e-015 -94.6908 8.49116e-005 -0.00209375 18.6534 1.77636e-015 -5.32907e-015 -48.8828 1.47428 -3.62909 5.09144 13.9567 -8.1773e-007 70.3135 -2.78624 -4.15199 4.288 -3e-006 -3.53495e-013 19.8192 2.34886e-005 2.94643e-005 0 0 0 -45 -2.17822e-005 1.05368e-005 -1.7e-005 1.1e-005 8.75617 -152.479 5.99451 -163.53 19.7638 0 -5.32907e-015 -125.922 0.000943599 -0.00298136 18.6534 0 -1e-006 60.9777 3.73886 -1.10998 5.09143 13.9567 -2.21793e-007 54.0037 1.50817 4.76893 4.288 1.42109e-014 1e-006 -16.7728 0.00189942 0.00216962 3.85799 2.84217e-014 -2e-006 -45 -1.25923e-005 -1.20439e-005 9.03271 -0.006336 1.39436 0.0468458 -0.00591727 -8.77378 8.04366 -0.006393 3e-006 -1.59028e-015 1.00179e-005 1.26141e-014 8.04445 -0.005989 -0.001937 7.97681 -17.6416 0.0157092 8.04304 -0.008323 6.66765e-010 -4.29873 1.70938e-005 2.63912e-005 10.6685 1.06812 7.05835e-006 -13.2811 -2.36848e-005 3.30841e-005 -2.46762 -5.31289 -9.04801 -158.4 -74.4065 141.379 19.0492 3e-006 3e-006 103.954 64.1946 -127.087 10.3706 2e-006 -1.20792e-013 -87.3186 4.04043e-005 0.00222843 22.8631 -1e-006 -1e-006 7.63758 21.8743 -13.4695 6.48256 0.103653 0.504495 13.0211 -15.4845 0.648544 3.66844 -1e-006 1.42109e-013 40.107 6.97768e-006 1.3435e-005 -2.46762 -5.31294 9.04798 -158.484 68.1703 -129.703 19.0492 -3e-006 -1.27898e-013 86.371 14.0768 86.0937 10.3706 3e-006 3.44613e-013 -75.1547 0.000490294 0.00360626 22.8631 -4.26326e-014 1e-006 30.4588 -3.27076 19.2474 6.48256 0.103657 -0.504495 43.5635 13.0996 -8.35766 3.66843 4.12115e-013 3e-006 40.1071 -2.71038e-005 -1.41659e-006 7.52378 -0.006317 9.99855e-007 -35.4716 0.00101673 0.00282729 8.47829 -0.005882 -3.00006e-006 28.7974 1.45886e-005 -5.95016e-005 8.41604 -3e-006 1e-006 -55.4595 -7.18848 16.1562 -7e-006 5e-006 -3e-006 -23.1098 1.37701e-015 90 9.74595e-007 -0.5 -1.43555e-006 111.995 90 -21.9945 6.5275 7.61746 2.31221e-005 -104.487 -7.01671e-015 -180 2.88629 13.9448 3.88994 -23.1098 1.37701e-015 90 0.271065 1.32405 4.02122e-006 -71.7784 7.62939e-005 -180 4.61616 5.82872 -7.42704e-006 -120.289 4.14229e-006 -3.62471e-006 5.17783 2.98806 3.89439e-006 133.74 1.08563e-005 1.46311e-006 5.57567 7e-006 -3e-006 1.83152 1.15755e-006 3.02224e-007 2.93163 -4.40536e-013 -5e-006 -17.65 -6.39418e-006 -3.21662e-006 3.30153 -7e-006 4e-006 -26.1943 1.46164e-005 -1.27438e-005 15.5776 -0.000396 -6.99997e-006 3.18055e-015 0 1.59028e-015 9.40333 1.03973 -6.51764 -19.0868 17.2453 20.3009 2.77018 -0.006404 1.49999e-005 2.43503 9.27342e-006 -1.77699e-005 9.40366 1.03969 6.51768 -19.0868 -17.2453 -20.3008 2.77018 -0.006404 -7.00014e-006 2.43503 9.98802e-006 -2.73397e-007 
0 0 -103.333 -0 -90 -0 0.000104 -28.7009 35.9593 89.9999 0.000104481 80.3886 0 0 0 -90 4.48678e-005 -85.4246 -6.44719 -3.85823 -0.516641 172.966 3.41907 10.5925 10.3839 -0.008087 0.001105 4.84586 4.9916 0.885407 10.3829 -0.008106 -0.00081 -2.34071 -4.65213 -7.27562 10.3839 -0.007934 0.001577 4.56621 7.84123 -9.30273 10.3862 -0.007553 0.000691999 21.4133 3.14266 -7.80657 1.1e-005 -1.1e-005 -8.75617 -103.234 -3.43264 176.901 19.7638 -1.42109e-014 -3.55271e-015 -99.8031 0.000178485 -0.00209386 18.6534 -8.88179e-015 1.24345e-014 -49.302 1.76776 -3.49753 5.09144 13.9567 -7.34169e-007 70.0623 -2.76784 -4.1641 4.288 -3e-006 -3.91687e-013 19.4709 2.3763e-005 2.9365e-005 0 0 0 -45 -3.26879e-005 1.07583e-005 -1.7e-005 1.1e-005 8.75617 -142.647 5.93487 -168.003 19.7638 2.84217e-014 5.32907e-015 -111.208 0.000526751 -0.00297916 18.6534 0 -1e-006 39.4445 3.82018 -0.0115018 5.09143 13.9567 -2.19182e-007 78.4137 3.34594 3.7192 4.288 7.10543e-015 1e-006 0.338084 0.00245597 0.00151465 3.85799 -2.13163e-014 -2e-006 -41.6632 -1.42743e-005 -1.23734e-005 9.10304 -0.006336 0.72866 0.0472896 -0.00248176 -4.57425 8.04366 -0.006393 3e-006 8.89762e-021 1.00179e-005 -5.08885e-014 8.04445 -0.005989 -0.001937 7.97615 -15.591 0.0137113 8.04304 -0.008323 6.03127e-010 -4.29873 1.80206e-005 2.64241e-005 10.6685 1.06812 7.04922e-006 -13.2811 -2.39843e-005 3.29716e-005 -2.46762 -5.31289 -9.04801 -158.401 -73.7063 140.34 19.0492 3e-006 3e-006 123.12 73.3117 -143.147 10.3706 2e-006 -1.27898e-013 -65.0488 0.000462016 0.00224325 22.8631 -1e-006 -1e-006 -18.866 14.025 -14.1362 6.48256 0.103653 0.504495 8.17821 -15.4845 -0.644293 3.66844 -1e-006 -5.68434e-014 40.107 2.09771e-005 6.84852e-006 -2.46762 -5.31294 9.04798 -158.489 69.1264 -135.728 19.0492 -3e-006 -1.13687e-013 86.5072 35.065 87.9499 10.3706 3e-006 2.41585e-012 -112.916 -0.000776979 0.00363579 22.8631 0 1e-006 43.4927 -2.79226 20.2929 6.48257 0.103657 -0.504495 39.8827 13.5988 -7.50754 3.66843 3.4106e-013 3e-006 40.1071 -3.66689e-005 -1.02323e-006 7.52378 -0.006317 9.99875e-007 -35.4007 0.00102016 0.00282592 8.47829 -0.005882 -3.00005e-006 28.7974 1.46587e-005 -5.94671e-005 8.41604 -3e-006 1e-006 -55.6582 -6.35279 14.2722 -7e-006 5e-006 -3e-006 -23.1098 1.37701e-015 90 9.72464e-007 -0.5 -1.43565e-006 112.072 90 -22.0724 6.5275 7.61746 2.31143e-005 -104.668 7.01671e-015 -180 2.88629 13.9448 3.88994 -23.1098 1.37701e-015 90 0.271065 1.32405 4.01987e-006 -71.7784 7.62939e-005 -180 4.61616 5.82872 -7.38892e-006 -120.289 3.90313e-006 -3.30116e-006 5.17783 2.98806 3.897e-006 133.74 1.01478e-005 1.42686e-006 5.57567 7e-006 -3e-006 1.83152 1.20487e-006 2.80689e-007 2.93163 -4.68958e-013 -5e-006 -17.65 -6.12242e-006 -3.02678e-006 3.30153 -7e-006 4e-006 -26.1943 1.48328e-005 -1.26004e-005 15.5776 -0.000396 -6.99997e-006 3.18055e-015 7.95139e-016 -1.59028e-015 9.40333 1.03973 -6.51764 -19.0868 17.2453 20.3009 2.77018 -0.006404 1.49999e-005 2.43503 9.27034e-006 -1.77632e-005 9.40366 1.03969 6.51768 -19.0868 -17.2453 -20.3008 2.77018 -0.006404 -7.00014e-006 2.43503 9.9949e-006 -2.705e-007 
0 0 -106.667 -0 -90 -0 0.000104 -28.7009 36.0491 89.9999 6.54285e-006 80.2922 0 0 0 -90 -1.8202e-005 -90.6899 -6.46886 -3.85823 0.0771737 173.189 4.74773 7.46568 10.3839 -0.008087 0.001105 4.77643 5.87657 2.07936 10.3829 -0.008106 -0.00081 -2.46924 -5.46749 -7.54602 10.3839 -0.007934 0.001577 4.73393 9.23066 -9.93862 10.3862 -0.007553 0.000691999 21.4637 3.70114 -8.16411 1.1e-005 -1.1e-005 -8.75617 -104.334 -8.46999 175.533 19.7638 -1.42109e-014 0 -105.537 0.000285804 -0.00209363 18.6534 3.37508e-014 -2.22045e-014 -49.4921 2.04686 -3.34272 5.09144 13.9567 -6.63315e-007 69.8057 -2.7489 -4.17636 4.288 -3e-006 -4.56524e-013 19.083 2.42567e-005 2.91762e-005 0 0 0 -45 -9.18421e-005 1.10533e-005 -1.7e-005 1.1e-005 8.75617 -130.488 4.41626 -172.979 19.7638 0 0 -94.8834 0.000116402 -0.00296881 18.6534 7.10543e-015 -1e-006 11.1075 3.53884 1.55485 5.09143 13.9567 -2.61602e-007 103.537 4.60687 1.94857 4.288 -4.61853e-014 1e-006 18.2415 0.00278623 0.000685902 3.85799 6.59473e-013 -2e-006 -35.1823 1.31312e-007 1.97713e-007 9.13349 -0.006336 -0.109943 0.0473178 0.00186821 0.690865 8.04366 -0.006393 3e-006 -8.4855e-026 1.00179e-005 4.85314e-019 8.04445 -0.005989 -0.001937 7.97565 -11.959 0.0104499 8.04304 -0.008323 4.75596e-010 -4.29873 1.96758e-005 2.64899e-005 10.6685 1.06812 7.03469e-006 -13.2811 -2.44451e-005 3.27925e-005 -2.46762 -5.31289 -9.04801 -158.396 -72.9409 139.341 19.0492 3e-006 3e-006 136.107 78.4087 -152.838 10.3706 2e-006 -1.3145e-013 -47.4034 0.000931017 0.00224447 22.8631 -1e-006 -9.99999e-007 -33.2428 6.1214 -18.3288 6.48256 0.103653 0.504495 2.81298 -15.3619 -2.07357 3.66844 -1e-006 1.42109e-014 40.107 2.31676e-005 7.63404e-006 -2.46762 -5.31294 9.04798 -158.432 70.0749 -141.213 19.0492 -3e-006 -1.42109e-013 88.3752 34.2489 83.3254 10.3706 3e-006 1.35003e-012 -130.432 -0.00140536 0.00357215 22.8631 0 1e-006 52.8867 -2.70881 20.9668 6.48257 0.103657 -0.504495 35.9157 14.0742 -6.55846 3.66843 1.42109e-013 3e-006 40.1071 -2.6442e-006 -2.63118e-006 7.52378 -0.006317 9.99908e-007 -35.2669 0.00102664 0.00282336 8.47829 -0.005882 -3.00004e-006 28.7974 1.47768e-005 -5.94076e-005 8.41604 -3e-006 1e-006 -55.9224 -4.86009 10.9452 -7e-006 5e-006 -3e-006 -23.1098 1.37701e-015 90 9.68396e-007 -0.5 -1.43579e-006 180 90 -90 6.5275 7.61746 2.3095e-005 -104.849 7.01671e-015 -180 2.88629 13.9448 3.88994 -23.1098 1.37701e-015 90 0.271065 1.32405 4.01651e-006 -71.7784 7.62939e-005 -180 4.61616 5.82872 -7.311e-006 -120.289 3.28507e-006 -2.63981e-006 5.17783 2.98806 3.90909e-006 133.74 8.47567e-006 1.25942e-006 5.57567 7e-006 -3e-006 1.83152 1.20254e-006 2.32368e-007 2.93163 -4.12115e-013 -5e-006 -17.65 -5.35209e-006 -2.5679e-006 3.30153 -7e-006 4e-006 -26.1943 1.52329e-005 -1.23038e-005 15.5776 -0.000396 -6.99998e-006 -5.51738e-033 3.97569e-016 7.95139e-016 9.40333 1.03973 -6.51764 -19.0868 17.2453 20.3009 2.77018 -0.006404 1.49999e-005 2.43503 9.26577e-006 -1.77503e-005 9.40366 1.03969 6.51768 -19.0868 -17.2453 -20.3008 2.77018 -0.006404 -7.00012e-006 2.43503 1.00054e-005 -2.6336e-007 
0 0 -110 -0 -90 -0 0.000104 -28.7009 36.1792 90.0003 -0.000484854 80.1594 0 0 0 -90 7.2568e-006 -95.9696 -6.43978 -3.85823 0.672722 173.589 5.87322 3.93111 10.3839 -0.008087 0.001105 4.70294 6.52677 3.13733 10.3829 -0.008106 -0.00081 -2.54925 -6.06929 -7.57016 10.3839 -0.007934 0.001577 4.85135 10.256 -10.2336 10.3862 -0.007553 0.000691999 21.4965 4.11276 -8.25206 1.1e-005 -1.1e-005 -8.75617 -105.521 -13.4836 173.975 19.7638 0 -5.32907e-015 -110.523 0.000381609 -0.00209272 18.6534 8.88179e-015 -1.42109e-014 -48.4603 2.2138 -3.23438 5.09144 13.9567 -6.29079e-007 69.6743 -2.73926 -4.18263 4.288 -3e-006 -5.00044e-013 18.8626 2.47133e-005 2.89945e-005 0 0 0 -45 0.000417859 1.12644e-005 -1.7e-005 1.1e-005 8.75617 -121.001 1.08406 -176.67 19.7638 0 1.06581e-014 -85.5294 -0.000105144 -0.00296878 18.6534 -2.13163e-014 -1e-006 -10.7108 2.72005 2.79576 5.09143 13.9567 -3.81414e-007 107.906 4.74155 1.59235 4.288 -2.13163e-014 1e-006 23.037 0.00285104 0.000449995 3.85799 5.32907e-015 -2e-006 -31.9098 -1.52611e-005 -1.00675e-005 9.09237 -0.006336 -0.950975 0.0469722 0.00621748 5.97091 8.04366 -0.006393 3e-006 -6.7884e-026 1.00179e-005 3.88251e-019 8.04445 -0.005989 -0.001937 7.97466 -7.18963 0.00614758 8.04304 -0.008323 2.92256e-010 -4.29873 2.17981e-005 2.65845e-005 10.6685 1.06812 7.01858e-006 -13.2811 -2.4926e-005 3.2594e-005 -2.46762 -5.31289 -9.04801 -158.389 -72.1638 138.287 19.0492 3e-006 3e-006 106.981 77.3997 -120.899 10.3706 2e-006 -9.23706e-014 -40.6203 0.00103966 0.00223079 22.8631 -1e-006 -1e-006 -32.9016 -0.961801 -22.7956 6.48256 0.103653 0.504495 -1.88655 -15.1485 -3.31265 3.66844 -1e-006 4.26326e-014 40.107 1.32305e-005 1.00985e-005 -2.46762 -5.31294 9.04798 -158.386 70.8936 -144.468 19.0492 -3e-006 -9.9476e-014 86.9468 20.4481 84.9974 10.3706 3e-006 2.27374e-013 -133.615 -0.00149045 0.00354859 22.8631 3.05533e-013 1e-006 54.9358 -4.37666 21.3777 6.48257 0.103657 -0.504495 32.4826 14.432 -5.71296 3.66843 0 3e-006 40.1071 8.68635e-006 -4.26395e-006 7.52378 -0.006317 9.99947e-007 -35.0735 0.00103602 0.00281967 8.47829 -0.005882 -3.00002e-006 28.7974 1.49196e-005 -5.93326e-005 8.41604 -3e-006 1e-006 -56.1082 -2.89896 6.58621 -7e-006 5e-006 -3e-006 -23.1098 1.37701e-015 90 9.62654e-007 -0.5 -1.43588e-006 180 90 -90 6.5275 7.61746 2.3061e-005 -105.03 -7.01671e-015 -180 2.88629 13.9448 3.88994 -23.1098 1.37701e-015 90 0.271065 1.32405 4.0106e-006 -71.7784 7.62939e-005 -180 4.61616 5.82872 -7.19295e-006 -120.289 2.14396e-006 -1.63775e-006 5.17783 2.98806 3.93808e-006 133.74 5.49415e-006 8.5785e-007 5.57567 7e-006 -3e-006 1.83152 9.30643e-007 1.49359e-007 2.93163 -2.84217e-013 -5e-006 -17.65 -3.64704e-006 -1.69838e-006 3.30153 -7e-006 4e-006 -26.1943 1.5784e-005 -1.18501e-005 15.5776 -0.000396 -6.99999e-006 6.36111e-015 -7.95139e-016 7.95139e-016 9.40333 1.03973 -6.51764 -19.0868 17.2453 20.3009 2.77018 -0.006404 1.49999e-005 2.43503 9.26226e-006 -1.77325e-005 9.40366 1.03969 6.51768 -19.0868 -17.2453 -20.3008 2.77018 -0.006404 -7.00008e-006 2.43503 1.00158e-005 -2.50602e-007 
